<mxfile host="app.diagrams.net" modified="2023-05-27T15:41:58.030Z" agent="Mozilla/5.0 (Windows NT 10.0; Win64; x64) AppleWebKit/537.36 (KHTML, like Gecko) Chrome/113.0.0.0 Safari/537.36" etag="Z5frhOTpnu7y7qjgzwgH" version="21.3.4" type="google">
  <diagram id="C5RBs43oDa-KdzZeNtuy" name="Page-1">
    <mxGraphModel grid="1" page="1" gridSize="10" guides="1" tooltips="1" connect="1" arrows="1" fold="1" pageScale="1" pageWidth="827" pageHeight="1169" background="none" math="0" shadow="0">
      <root>
        <mxCell id="WIyWlLk6GJQsqaUBKTNV-0" />
        <mxCell id="WIyWlLk6GJQsqaUBKTNV-1" parent="WIyWlLk6GJQsqaUBKTNV-0" />
        <mxCell id="WIyWlLk6GJQsqaUBKTNV-2" value="" style="rounded=0;html=1;jettySize=auto;orthogonalLoop=1;fontSize=7;endArrow=block;endFill=0;endSize=8;strokeWidth=1;shadow=0;labelBackgroundColor=none;edgeStyle=orthogonalEdgeStyle;" edge="1" parent="WIyWlLk6GJQsqaUBKTNV-1" target="WIyWlLk6GJQsqaUBKTNV-6">
          <mxGeometry relative="1" as="geometry">
            <mxPoint x="210" y="143" as="sourcePoint" />
          </mxGeometry>
        </mxCell>
        <mxCell id="WIyWlLk6GJQsqaUBKTNV-3" value="Launch NUShopLah! App" style="rounded=1;whiteSpace=wrap;html=1;fontSize=7;glass=0;strokeWidth=1;shadow=0;" vertex="1" parent="WIyWlLk6GJQsqaUBKTNV-1">
          <mxGeometry x="161.25" y="115" width="100" height="30" as="geometry" />
        </mxCell>
        <mxCell id="WIyWlLk6GJQsqaUBKTNV-5" value="Yes" style="edgeStyle=orthogonalEdgeStyle;rounded=0;html=1;jettySize=auto;orthogonalLoop=1;fontSize=7;endArrow=block;endFill=0;endSize=8;strokeWidth=1;shadow=0;labelBackgroundColor=none;entryX=0;entryY=0.5;entryDx=0;entryDy=0;" edge="1" parent="WIyWlLk6GJQsqaUBKTNV-1" source="WIyWlLk6GJQsqaUBKTNV-6" target="YWob4YN-95-qTumxjU9S-4">
          <mxGeometry x="-0.0048" y="10" relative="1" as="geometry">
            <mxPoint as="offset" />
            <mxPoint x="594" y="333" as="targetPoint" />
            <Array as="points">
              <mxPoint x="280" y="243" />
              <mxPoint x="280" y="243" />
            </Array>
          </mxGeometry>
        </mxCell>
        <mxCell id="WIyWlLk6GJQsqaUBKTNV-6" value="Is this the first time user installs the app?" style="rhombus;whiteSpace=wrap;html=1;shadow=0;fontFamily=Helvetica;fontSize=7;align=center;strokeWidth=1;spacing=6;spacingTop=-4;" vertex="1" parent="WIyWlLk6GJQsqaUBKTNV-1">
          <mxGeometry x="161.25" y="203" width="97.5" height="80" as="geometry" />
        </mxCell>
        <mxCell id="YWob4YN-95-qTumxjU9S-30" style="edgeStyle=orthogonalEdgeStyle;rounded=0;orthogonalLoop=1;jettySize=auto;html=1;entryX=0.5;entryY=0;entryDx=0;entryDy=0;" edge="1" parent="WIyWlLk6GJQsqaUBKTNV-1" source="YWob4YN-95-qTumxjU9S-4" target="YWob4YN-95-qTumxjU9S-6">
          <mxGeometry relative="1" as="geometry">
            <Array as="points">
              <mxPoint x="210" y="293" />
            </Array>
          </mxGeometry>
        </mxCell>
        <mxCell id="YWob4YN-95-qTumxjU9S-4" value="View Onboarding Screen" style="rounded=0;whiteSpace=wrap;html=1;fontSize=7;" vertex="1" parent="WIyWlLk6GJQsqaUBKTNV-1">
          <mxGeometry x="300" y="228" width="70" height="30" as="geometry" />
        </mxCell>
        <mxCell id="YWob4YN-95-qTumxjU9S-6" value="Login Screen" style="rounded=0;whiteSpace=wrap;html=1;fontSize=7;" vertex="1" parent="WIyWlLk6GJQsqaUBKTNV-1">
          <mxGeometry x="180" y="328" width="60" height="35" as="geometry" />
        </mxCell>
        <mxCell id="YWob4YN-95-qTumxjU9S-11" value="" style="endArrow=classic;html=1;rounded=0;exitX=0.5;exitY=1;exitDx=0;exitDy=0;entryX=0.5;entryY=0;entryDx=0;entryDy=0;fontSize=7;" edge="1" parent="WIyWlLk6GJQsqaUBKTNV-1" source="WIyWlLk6GJQsqaUBKTNV-6" target="YWob4YN-95-qTumxjU9S-6">
          <mxGeometry width="50" height="50" relative="1" as="geometry">
            <mxPoint x="390" y="393" as="sourcePoint" />
            <mxPoint x="440" y="343" as="targetPoint" />
          </mxGeometry>
        </mxCell>
        <mxCell id="YWob4YN-95-qTumxjU9S-13" value="" style="endArrow=classic;html=1;rounded=0;exitX=0.5;exitY=1;exitDx=0;exitDy=0;entryX=0.484;entryY=0.122;entryDx=0;entryDy=0;fontSize=7;entryPerimeter=0;" edge="1" parent="WIyWlLk6GJQsqaUBKTNV-1" source="YWob4YN-95-qTumxjU9S-6" target="YWob4YN-95-qTumxjU9S-28">
          <mxGeometry width="50" height="50" relative="1" as="geometry">
            <mxPoint x="390" y="593" as="sourcePoint" />
            <mxPoint x="208.7500000000001" y="423" as="targetPoint" />
          </mxGeometry>
        </mxCell>
        <mxCell id="YWob4YN-95-qTumxjU9S-14" value="Has this user &lt;br style=&quot;font-size: 7px;&quot;&gt;Signed Up?" style="rhombus;whiteSpace=wrap;html=1;fontSize=7;" vertex="1" parent="WIyWlLk6GJQsqaUBKTNV-1">
          <mxGeometry x="158.75" y="523" width="98.75" height="70" as="geometry" />
        </mxCell>
        <mxCell id="YWob4YN-95-qTumxjU9S-16" value="Error: Invalid User" style="rounded=1;whiteSpace=wrap;html=1;fontSize=7;" vertex="1" parent="WIyWlLk6GJQsqaUBKTNV-1">
          <mxGeometry x="170" y="673" width="80" height="30" as="geometry" />
        </mxCell>
        <mxCell id="YWob4YN-95-qTumxjU9S-17" value="" style="endArrow=classic;html=1;rounded=0;exitX=0.5;exitY=1;exitDx=0;exitDy=0;entryX=0.5;entryY=0;entryDx=0;entryDy=0;fontSize=7;" edge="1" parent="WIyWlLk6GJQsqaUBKTNV-1" target="YWob4YN-95-qTumxjU9S-14">
          <mxGeometry width="50" height="50" relative="1" as="geometry">
            <mxPoint x="208.7500000000001" y="473" as="sourcePoint" />
            <mxPoint x="300" y="623" as="targetPoint" />
          </mxGeometry>
        </mxCell>
        <mxCell id="YWob4YN-95-qTumxjU9S-18" value="" style="endArrow=classic;html=1;rounded=0;exitX=0.5;exitY=1;exitDx=0;exitDy=0;entryX=0.5;entryY=0;entryDx=0;entryDy=0;fontSize=7;" edge="1" parent="WIyWlLk6GJQsqaUBKTNV-1">
          <mxGeometry width="50" height="50" relative="1" as="geometry">
            <mxPoint x="207.86" y="593" as="sourcePoint" />
            <mxPoint x="207.86" y="673" as="targetPoint" />
          </mxGeometry>
        </mxCell>
        <mxCell id="YWob4YN-95-qTumxjU9S-20" value="No" style="text;html=1;strokeColor=none;fillColor=none;align=center;verticalAlign=middle;whiteSpace=wrap;rounded=0;fontSize=7;" vertex="1" parent="WIyWlLk6GJQsqaUBKTNV-1">
          <mxGeometry x="180" y="618" width="30" height="15" as="geometry" />
        </mxCell>
        <mxCell id="YWob4YN-95-qTumxjU9S-21" value="Home Screen" style="rounded=0;whiteSpace=wrap;html=1;fontSize=7;" vertex="1" parent="WIyWlLk6GJQsqaUBKTNV-1">
          <mxGeometry x="290" y="540.5" width="70" height="35" as="geometry" />
        </mxCell>
        <mxCell id="YWob4YN-95-qTumxjU9S-22" value="" style="endArrow=classic;html=1;rounded=0;exitX=1;exitY=0.5;exitDx=0;exitDy=0;entryX=0;entryY=0.5;entryDx=0;entryDy=0;fontSize=7;" edge="1" parent="WIyWlLk6GJQsqaUBKTNV-1" source="YWob4YN-95-qTumxjU9S-14" target="YWob4YN-95-qTumxjU9S-21">
          <mxGeometry width="50" height="50" relative="1" as="geometry">
            <mxPoint x="390" y="793" as="sourcePoint" />
            <mxPoint x="440" y="743" as="targetPoint" />
          </mxGeometry>
        </mxCell>
        <mxCell id="YWob4YN-95-qTumxjU9S-23" value="" style="endArrow=classic;html=1;rounded=0;entryX=1;entryY=0.75;entryDx=0;entryDy=0;exitX=0.5;exitY=0;exitDx=0;exitDy=0;fontSize=7;" edge="1" parent="WIyWlLk6GJQsqaUBKTNV-1" source="YWob4YN-95-qTumxjU9S-21" target="YWob4YN-95-qTumxjU9S-6">
          <mxGeometry width="50" height="50" relative="1" as="geometry">
            <mxPoint x="390" y="793" as="sourcePoint" />
            <mxPoint x="440" y="743" as="targetPoint" />
            <Array as="points">
              <mxPoint x="325" y="354" />
            </Array>
          </mxGeometry>
        </mxCell>
        <mxCell id="YWob4YN-95-qTumxjU9S-24" value="Log Out button pressed" style="text;html=1;strokeColor=none;fillColor=none;align=center;verticalAlign=middle;whiteSpace=wrap;rounded=0;fontSize=7;" vertex="1" parent="WIyWlLk6GJQsqaUBKTNV-1">
          <mxGeometry x="280" y="483" width="40" height="40" as="geometry" />
        </mxCell>
        <mxCell id="YWob4YN-95-qTumxjU9S-25" value="&lt;font style=&quot;font-size: 7px;&quot;&gt;No&lt;/font&gt;" style="text;html=1;strokeColor=none;fillColor=none;align=center;verticalAlign=middle;whiteSpace=wrap;rounded=0;" vertex="1" parent="WIyWlLk6GJQsqaUBKTNV-1">
          <mxGeometry x="190" y="288" width="20" height="20" as="geometry" />
        </mxCell>
        <mxCell id="YWob4YN-95-qTumxjU9S-28" value="&lt;font style=&quot;font-size: 7px;&quot;&gt;Manually input Email and Password&lt;/font&gt;" style="shape=manualInput;whiteSpace=wrap;html=1;size=13;" vertex="1" parent="WIyWlLk6GJQsqaUBKTNV-1">
          <mxGeometry x="170" y="413" width="80" height="60" as="geometry" />
        </mxCell>
        <mxCell id="YWob4YN-95-qTumxjU9S-29" value="&lt;font style=&quot;font-size: 7px;&quot;&gt;Click Sign In&lt;/font&gt;" style="text;html=1;strokeColor=none;fillColor=none;align=center;verticalAlign=middle;whiteSpace=wrap;rounded=0;" vertex="1" parent="WIyWlLk6GJQsqaUBKTNV-1">
          <mxGeometry x="170" y="483" width="30" height="20" as="geometry" />
        </mxCell>
        <mxCell id="YWob4YN-95-qTumxjU9S-32" value="ID Screen" style="rounded=0;whiteSpace=wrap;html=1;fontSize=7;" vertex="1" parent="WIyWlLk6GJQsqaUBKTNV-1">
          <mxGeometry x="379" y="618" width="70" height="35" as="geometry" />
        </mxCell>
        <mxCell id="YWob4YN-95-qTumxjU9S-33" value="Settings Screen" style="rounded=0;whiteSpace=wrap;html=1;fontSize=7;" vertex="1" parent="WIyWlLk6GJQsqaUBKTNV-1">
          <mxGeometry x="460" y="540.5" width="70" height="35" as="geometry" />
        </mxCell>
        <mxCell id="YWob4YN-95-qTumxjU9S-34" value="" style="endArrow=classic;startArrow=classic;html=1;rounded=0;entryX=0.25;entryY=0;entryDx=0;entryDy=0;exitX=0.75;exitY=1;exitDx=0;exitDy=0;" edge="1" parent="WIyWlLk6GJQsqaUBKTNV-1" source="YWob4YN-95-qTumxjU9S-21" target="YWob4YN-95-qTumxjU9S-32">
          <mxGeometry width="50" height="50" relative="1" as="geometry">
            <mxPoint x="320" y="576" as="sourcePoint" />
            <mxPoint x="400" y="573" as="targetPoint" />
          </mxGeometry>
        </mxCell>
        <mxCell id="YWob4YN-95-qTumxjU9S-35" value="" style="endArrow=classic;startArrow=classic;html=1;rounded=0;entryX=0;entryY=0.5;entryDx=0;entryDy=0;exitX=1;exitY=0.5;exitDx=0;exitDy=0;" edge="1" parent="WIyWlLk6GJQsqaUBKTNV-1" source="YWob4YN-95-qTumxjU9S-21" target="YWob4YN-95-qTumxjU9S-33">
          <mxGeometry width="50" height="50" relative="1" as="geometry">
            <mxPoint x="360" y="553" as="sourcePoint" />
            <mxPoint x="440" y="595" as="targetPoint" />
          </mxGeometry>
        </mxCell>
        <mxCell id="YWob4YN-95-qTumxjU9S-37" value="" style="endArrow=classic;startArrow=classic;html=1;rounded=0;entryX=0.25;entryY=1;entryDx=0;entryDy=0;exitX=0.75;exitY=0;exitDx=0;exitDy=0;" edge="1" parent="WIyWlLk6GJQsqaUBKTNV-1" source="YWob4YN-95-qTumxjU9S-32" target="YWob4YN-95-qTumxjU9S-33">
          <mxGeometry width="50" height="50" relative="1" as="geometry">
            <mxPoint x="370" y="568" as="sourcePoint" />
            <mxPoint x="470" y="568" as="targetPoint" />
          </mxGeometry>
        </mxCell>
        <mxCell id="YWob4YN-95-qTumxjU9S-41" value="Sign Up Screen" style="rounded=0;whiteSpace=wrap;html=1;fontSize=7;" vertex="1" parent="WIyWlLk6GJQsqaUBKTNV-1">
          <mxGeometry x="449" y="328" width="60" height="35" as="geometry" />
        </mxCell>
        <mxCell id="YWob4YN-95-qTumxjU9S-42" value="" style="endArrow=classic;html=1;rounded=0;exitX=1;exitY=0.25;exitDx=0;exitDy=0;entryX=0;entryY=0.25;entryDx=0;entryDy=0;" edge="1" parent="WIyWlLk6GJQsqaUBKTNV-1" source="YWob4YN-95-qTumxjU9S-6" target="YWob4YN-95-qTumxjU9S-41">
          <mxGeometry width="50" height="50" relative="1" as="geometry">
            <mxPoint x="380" y="413" as="sourcePoint" />
            <mxPoint x="430" y="363" as="targetPoint" />
          </mxGeometry>
        </mxCell>
        <mxCell id="YWob4YN-95-qTumxjU9S-43" value="&quot;Don&#39;t have an account? Sign up here.&quot; clicked" style="text;html=1;strokeColor=none;fillColor=none;align=center;verticalAlign=middle;whiteSpace=wrap;rounded=0;fontSize=7;" vertex="1" parent="WIyWlLk6GJQsqaUBKTNV-1">
          <mxGeometry x="240" y="323" width="160" height="10" as="geometry" />
        </mxCell>
        <mxCell id="YWob4YN-95-qTumxjU9S-44" value="" style="endArrow=classic;html=1;rounded=0;exitX=0;exitY=0.75;exitDx=0;exitDy=0;" edge="1" parent="WIyWlLk6GJQsqaUBKTNV-1" source="YWob4YN-95-qTumxjU9S-41">
          <mxGeometry width="50" height="50" relative="1" as="geometry">
            <mxPoint x="380" y="413" as="sourcePoint" />
            <mxPoint x="240" y="354" as="targetPoint" />
          </mxGeometry>
        </mxCell>
        <mxCell id="YWob4YN-95-qTumxjU9S-45" value="&quot;Have an Account? Sign In.&quot; clicked" style="text;html=1;strokeColor=none;fillColor=none;align=center;verticalAlign=middle;whiteSpace=wrap;rounded=0;fontSize=7;" vertex="1" parent="WIyWlLk6GJQsqaUBKTNV-1">
          <mxGeometry x="370" y="357" width="70" height="20" as="geometry" />
        </mxCell>
        <mxCell id="YWob4YN-95-qTumxjU9S-46" value="&lt;font style=&quot;font-size: 7px;&quot;&gt;Manually input Email, First Name and Last Name, and Password&lt;/font&gt;" style="shape=manualInput;whiteSpace=wrap;html=1;size=13;" vertex="1" parent="WIyWlLk6GJQsqaUBKTNV-1">
          <mxGeometry x="560" y="308" width="80" height="60" as="geometry" />
        </mxCell>
        <mxCell id="YWob4YN-95-qTumxjU9S-47" value="" style="endArrow=classic;html=1;rounded=0;exitX=1;exitY=0.5;exitDx=0;exitDy=0;entryX=0.008;entryY=0.644;entryDx=0;entryDy=0;entryPerimeter=0;" edge="1" parent="WIyWlLk6GJQsqaUBKTNV-1" source="YWob4YN-95-qTumxjU9S-41" target="YWob4YN-95-qTumxjU9S-46">
          <mxGeometry width="50" height="50" relative="1" as="geometry">
            <mxPoint x="280" y="423" as="sourcePoint" />
            <mxPoint x="330" y="373" as="targetPoint" />
          </mxGeometry>
        </mxCell>
        <mxCell id="YWob4YN-95-qTumxjU9S-50" value="" style="endArrow=classic;html=1;rounded=0;exitX=0.5;exitY=1;exitDx=0;exitDy=0;" edge="1" parent="WIyWlLk6GJQsqaUBKTNV-1" source="YWob4YN-95-qTumxjU9S-46" target="YWob4YN-95-qTumxjU9S-54">
          <mxGeometry width="50" height="50" relative="1" as="geometry">
            <mxPoint x="420" y="423" as="sourcePoint" />
            <mxPoint x="600" y="413" as="targetPoint" />
          </mxGeometry>
        </mxCell>
        <mxCell id="YWob4YN-95-qTumxjU9S-54" value="&lt;font style=&quot;font-size: 7px;&quot;&gt;Send verification email&lt;/font&gt;" style="rounded=0;whiteSpace=wrap;html=1;" vertex="1" parent="WIyWlLk6GJQsqaUBKTNV-1">
          <mxGeometry x="565" y="403" width="70" height="40" as="geometry" />
        </mxCell>
        <mxCell id="YWob4YN-95-qTumxjU9S-56" value="" style="endArrow=classic;html=1;rounded=0;exitX=0;exitY=0.5;exitDx=0;exitDy=0;entryX=0.659;entryY=0.035;entryDx=0;entryDy=0;entryPerimeter=0;" edge="1" parent="WIyWlLk6GJQsqaUBKTNV-1" source="YWob4YN-95-qTumxjU9S-54" target="YWob4YN-95-qTumxjU9S-21">
          <mxGeometry width="50" height="50" relative="1" as="geometry">
            <mxPoint x="420" y="423" as="sourcePoint" />
            <mxPoint x="470" y="373" as="targetPoint" />
            <Array as="points">
              <mxPoint x="336" y="423" />
            </Array>
          </mxGeometry>
        </mxCell>
        <mxCell id="YWob4YN-95-qTumxjU9S-57" value="&quot;Sign Up&quot; Clicked" style="text;html=1;strokeColor=none;fillColor=none;align=center;verticalAlign=middle;whiteSpace=wrap;rounded=0;fontSize=7;" vertex="1" parent="WIyWlLk6GJQsqaUBKTNV-1">
          <mxGeometry x="530" y="377" width="70" height="20" as="geometry" />
        </mxCell>
        <mxCell id="YWob4YN-95-qTumxjU9S-58" value="NUShopLah! App Milestone 1 Navigation Flowchart" style="text;html=1;strokeColor=none;fillColor=none;align=center;verticalAlign=middle;whiteSpace=wrap;rounded=0;" vertex="1" parent="WIyWlLk6GJQsqaUBKTNV-1">
          <mxGeometry x="339" y="20" width="170" height="60" as="geometry" />
        </mxCell>
      </root>
    </mxGraphModel>
  </diagram>
</mxfile>
